<svg viewBox="0 0 81 81" xmlns="http://www.w3.org/2000/svg" class="c-icon__svg"><path d="M58.334 42.124h15.068a1 1 0 0 0 1-1v-4.271c0-7.361-5.989-13.351-13.351-13.351h-2.718a1 1 0 0 0-1 1v16.621a1 1 0 0 0 1.001 1.001zm1-16.621h1.718c6.259 0 11.351 5.092 11.351 11.351v3.271H59.334V25.503z"/><path d="M1.865 80.1c.089 0 .178-.012.268-.036a114.947 114.947 0 0 1 11.559-2.535c.853.234 1.745.369 2.671.369 2.016 0 3.891-.599 5.47-1.618 11.918-1.26 24.821-1.111 38.351.443a10.052 10.052 0 0 0 4.722 1.176c.62 0 1.224-.065 1.814-.172 7.825 1.148 12.76 2.354 12.809 2.366a1.001 1.001 0 0 0 .479-1.942c-.042-.011-3.675-.898-9.621-1.877a10.127 10.127 0 0 0 4.598-7.557h4.965a1 1 0 0 0 1-1V35.519c0-10.291-8.372-18.663-18.663-18.663H59.4V1.12a1 1 0 0 0-1-1H1.866a1 1 0 0 0-1 1v66.597a1 1 0 0 0 1 1h4.419a10.123 10.123 0 0 0 4.275 7.34c-3.086.59-6.089 1.286-8.961 2.079a1 1 0 0 0 .266 1.964zm22.427-6.05a10.066 10.066 0 0 0 2.148-5.333h28.389a10.073 10.073 0 0 0 2.453 5.697c-11.542-1.152-22.611-1.274-32.99-.364zm40.614 1.847c-4.48 0-8.125-3.646-8.125-8.126 0-4.48 3.645-8.125 8.125-8.125s8.126 3.645 8.126 8.125-3.645 8.126-8.126 8.126zM2.866 2.12H57.4v15.735a1 1 0 0 0 1 1h3.886c9.188 0 16.663 7.475 16.663 16.663v31.198h-3.973c-.529-5.089-4.844-9.07-10.07-9.07s-9.54 3.981-10.069 9.07H26.433c-.529-5.089-4.843-9.07-10.069-9.07-5.226 0-9.541 3.981-10.07 9.07H2.867V2.12h-.001zm5.371 65.651c0-4.48 3.646-8.125 8.126-8.125 4.48 0 8.125 3.645 8.125 8.125s-3.645 8.126-8.125 8.126a8.106 8.106 0 0 1-2.412-.365c-3.306-1.03-5.714-4.12-5.714-7.761z"/><path d="M17.781 19.833c-1.623 1.623-1.875 4.18-.885 6.53-2.388.986-3.896 2.96-3.896 5.188 0 2.232 1.515 4.212 3.913 5.194a7.336 7.336 0 0 0-.518 1.97c-.202 1.774.309 3.373 1.438 4.503.991.99 2.331 1.474 3.76 1.474.91 0 1.856-.2 2.772-.585C25.35 46.493 27.325 48 29.55 48c2.235 0 4.216-1.518 5.198-3.92.897.368 1.82.56 2.71.56 1.428 0 2.769-.482 3.76-1.472 1.622-1.624 1.874-4.18.885-6.53C44.49 35.651 46 33.676 46 31.45c0-2.235-1.518-4.215-3.92-5.198.959-2.334.696-4.86-.913-6.47-1.13-1.13-2.73-1.642-4.503-1.438a7.346 7.346 0 0 0-2.03.546c-.987-2.384-2.96-3.89-5.185-3.89-2.235 0-4.217 1.518-5.198 3.92-2.333-.958-4.86-.696-6.47.913zm-3.37 11.718c0-1.677 1.23-3.175 3.154-3.925.326.505.707.992 1.157 1.442 1.296 1.296 3.464 2.05 5.097 2.464-1.638.42-3.767 1.171-5.046 2.451-.461.462-.86.966-1.198 1.497-1.93-.749-3.163-2.248-3.163-3.93zM29.5 27.81a3.694 3.694 0 0 1 3.69 3.69 3.694 3.694 0 0 1-3.69 3.69 3.694 3.694 0 0 1-3.69-3.69 3.695 3.695 0 0 1 3.69-3.69zM18.831 42.22c-.819-.82-1.186-2.007-1.034-3.345.16-1.397.861-2.78 1.974-3.894.892-.892 2.623-1.671 4.801-2.18.168.637.456 1.224.84 1.738l-2.938 2.938a.705.705 0 1 0 .998.998l2.93-2.931a5.082 5.082 0 0 0 1.856.898c-.51 2.195-1.293 3.943-2.188 4.838-1.114 1.113-2.496 1.814-3.895 1.973-1.334.153-2.524-.213-3.344-1.033zm10.72 4.368c-1.677 0-3.175-1.229-3.925-3.153a8.7 8.7 0 0 0 1.44-1.157c1.295-1.294 2.05-3.463 2.466-5.097.42 1.638 1.171 3.767 2.451 5.047.467.466.973.859 1.499 1.192-.748 1.933-2.25 3.168-3.932 3.168zm10.67-4.418c-1.736 1.735-4.985 1.315-7.239-.94-.892-.893-1.671-2.624-2.181-4.802a5.078 5.078 0 0 0 1.738-.839l2.938 2.938a.704.704 0 0 0 .998 0 .705.705 0 0 0 0-.998l-2.93-2.93a5.083 5.083 0 0 0 .898-1.856c2.195.51 3.942 1.293 4.837 2.189 2.255 2.254 2.676 5.5.94 7.238zm4.367-10.72c0 1.677-1.229 3.175-3.153 3.925a8.672 8.672 0 0 0-1.157-1.442c-1.296-1.296-3.464-2.05-5.097-2.464 1.638-.42 3.766-1.172 5.045-2.451a8.684 8.684 0 0 0 1.194-1.498c1.934.747 3.168 2.248 3.168 3.93zm-7.763-11.703c1.339-.153 2.525.214 3.344 1.033 1.736 1.737 1.314 4.984-.94 7.239-.892.892-2.624 1.671-4.802 2.18a5.076 5.076 0 0 0-.84-1.738l2.938-2.938a.705.705 0 1 0-.998-.998l-2.93 2.931a5.07 5.07 0 0 0-1.856-.898c.51-2.193 1.294-3.942 2.189-4.838 1.114-1.113 2.496-1.814 3.895-1.973zm-7.375-3.335c1.676 0 3.173 1.227 3.923 3.15a8.77 8.77 0 0 0-1.44 1.16c-1.297 1.297-2.052 3.47-2.464 5.097-.413-1.608-1.165-3.76-2.451-5.046a8.68 8.68 0 0 0-1.498-1.193c.747-1.934 2.247-3.168 3.93-3.168zm-3.432 5.36c.889.888 1.67 2.625 2.18 4.802a5.088 5.088 0 0 0-1.737.838l-2.938-2.938a.705.705 0 1 0-.998.998l2.93 2.93a5.07 5.07 0 0 0-.897 1.856c-2.194-.51-3.942-1.293-4.838-2.188-2.255-2.255-2.677-5.503-.94-7.239 1.735-1.736 4.984-1.315 7.238.94z"/></svg>